<svg width="32" height="32" fill="none" xmlns="http://www.w3.org/2000/svg"><rect width="32" height="32" rx="6" fill="#545FFF"/><path fill-rule="evenodd" clip-rule="evenodd" d="M15.434 5.507a7.785 7.785 0 00-2.854-.506 5.81 5.81 0 00-1.686.232 6.5 6.5 0 00-1.362.595 5.638 5.638 0 00-1.06.774l-.243.24c0-.09 0-.186-.023-.283a9.682 9.682 0 01-.058-.94v-.274H5v21.838l3.256-1.802V17.84c.058.054.116.108.182.158.336.272.703.505 1.09.696.91.445 1.911.674 2.924.67.989.009 1.97-.174 2.889-.538a6.85 6.85 0 002.278-1.493 6.68 6.68 0 001.477-2.266 7.576 7.576 0 00.526-2.839 8.435 8.435 0 00-.507-2.993 6.487 6.487 0 00-1.446-2.282 6.441 6.441 0 00-2.235-1.446zm-4.738 3.009a4.302 4.302 0 011.644-.31 3.936 3.936 0 011.59.31 3.506 3.506 0 011.952 2.061 4.878 4.878 0 010 3.183c-.17.468-.434.896-.773 1.26a3.477 3.477 0 01-1.191.863 3.936 3.936 0 01-1.59.31 4.302 4.302 0 01-1.643-.31 3.797 3.797 0 01-1.28-.84 3.933 3.933 0 01-.84-1.264 4.099 4.099 0 01-.309-1.597 3.912 3.912 0 011.16-2.827 3.839 3.839 0 011.28-.84zM27 16.115a3.272 3.272 0 11-6.544 0 3.272 3.272 0 016.544 0z" fill="#fff"/></svg>