<svg xmlns="http://www.w3.org/2000/svg" width="66" height="66" viewBox="0 0 66 66">
    <g fill="none" fill-rule="evenodd">
        <g fill="#545FFF">
            <path d="M32.439.123c17.915 0 32.438 14.523 32.438 32.438C64.877 50.477 50.354 65 32.44 65 14.523 65-.001 50.477-.001 32.56 0 14.646 14.524.123 32.44.123zM30.81 20c-.71 0-1.37.088-1.96.262-.58.171-1.113.39-1.583.647-.469.258-.883.547-1.231.859-.1.09-.195.18-.284.27-.007-.104-.015-.21-.025-.32-.036-.404-.054-.747-.054-1.02v-.308H22V45l3.784-2.03V34.47c.067.06.138.12.213.18.357.284.784.548 1.267.782.48.233 1.013.42 1.587.555.572.136 1.182.205 1.814.205 1.207 0 2.337-.205 3.36-.609 1.022-.404 1.914-.97 2.648-1.681.735-.712 1.313-1.57 1.718-2.552.404-.979.609-2.056.609-3.201 0-1.237-.198-2.372-.588-3.374-.394-1.008-.96-1.874-1.683-2.574-.723-.701-1.597-1.25-2.599-1.63-.997-.38-2.113-.572-3.319-.572zm13.69 9C42.566 29 41 30.567 41 32.5s1.567 3.5 3.5 3.5 3.5-1.567 3.5-3.5-1.567-3.5-3.5-3.5zm-13.982-5.403c.684 0 1.307.116 1.849.346.542.23 1.013.547 1.398.94.382.394.68.866.884 1.404.206.542.31 1.145.31 1.792 0 .646-.104 1.25-.31 1.792-.204.539-.503 1.017-.888 1.423-.383.404-.852.726-1.394.955-.542.23-1.165.347-1.85.347-.687 0-1.33-.118-1.91-.35-.581-.231-1.082-.549-1.49-.943-.408-.397-.736-.877-.974-1.428-.239-.55-.36-1.154-.36-1.796 0-.64.12-1.239.359-1.777.239-.541.567-1.016.976-1.412.407-.395.908-.713 1.488-.944.581-.232 1.224-.35 1.912-.35z" transform="translate(-164 -113) translate(164.877 113.123)"/>
        </g>
    </g>
</svg>
