<svg width="32" height="32" viewBox="0 0 32 32" fill="none" xmlns="http://www.w3.org/2000/svg">
<rect width="32" height="32" rx="6" fill="#545FFF"/>
<path fill-rule="evenodd" clip-rule="evenodd" d="M15.4338 5.50712C14.5227 5.16101 13.5543 4.9893 12.5798 5.00052C12.0094 4.99472 11.4413 5.07283 10.8937 5.23255C10.4188 5.37834 9.96167 5.57828 9.5324 5.8281C9.15032 6.0439 8.79453 6.30339 8.47278 6.60155L8.22914 6.84132C8.22914 6.75238 8.22914 6.65569 8.20594 6.55901C8.16727 6.17732 8.14793 5.86407 8.14793 5.61927V5.3447H5V27.183L8.25622 25.3809V17.8397C8.31422 17.8939 8.37223 17.948 8.43797 17.9983C8.77442 18.2698 9.14065 18.5034 9.52854 18.6944C10.4389 19.1391 11.439 19.3677 12.4522 19.3634C13.4406 19.3727 14.4218 19.1902 15.341 18.8259C16.1926 18.4856 16.9672 17.9782 17.6188 17.3331C18.2608 16.6861 18.7635 15.915 19.0961 15.0669C19.4519 14.1632 19.6301 13.1994 19.622 12.2284C19.6356 11.2082 19.4639 10.1942 19.1154 9.23514C18.7987 8.38164 18.306 7.60394 17.6691 6.95347C17.0329 6.32118 16.2715 5.8281 15.4338 5.50712ZM10.6964 8.51584C11.2185 8.30623 11.7773 8.20104 12.34 8.20646C12.8853 8.19834 13.4267 8.30352 13.9295 8.51584C14.8421 8.89676 15.551 9.64507 15.8824 10.5771C16.2382 11.6081 16.2382 12.7288 15.8824 13.7598C15.7115 14.2277 15.4481 14.6562 15.109 15.0205C14.7779 15.3895 14.3719 15.6838 13.9179 15.8829C13.4151 16.0952 12.8737 16.2004 12.3284 16.1923C11.7657 16.1977 11.2069 16.0925 10.6848 15.8829C10.2053 15.693 9.77024 15.4073 9.40479 15.0437C9.04552 14.6806 8.7605 14.2509 8.56559 13.7791C8.35676 13.2725 8.25157 12.7296 8.25622 12.182C8.24384 11.1212 8.66227 10.1014 9.41639 9.35503C9.78223 8.99228 10.2177 8.70688 10.6964 8.51584ZM26.9999 16.1149C26.9999 17.9218 25.5351 19.3866 23.7282 19.3866C21.9213 19.3866 20.4565 17.9218 20.4565 16.1149C20.4565 14.308 21.9213 12.8433 23.7282 12.8433C25.5351 12.8433 26.9999 14.308 26.9999 16.1149Z" fill="white"/>
</svg>
